<svg width="38" height="40" viewBox="0 0 38 40" fill="none" xmlns="http://www.w3.org/2000/svg">
<g clip-path="url(#clip0_23_2)">
<path fill-rule="evenodd" clip-rule="evenodd" d="M30.879 28.7425C32.1448 28.4282 33.4597 28.1018 35.1981 28.0161C35.9333 27.9793 36.7696 28.0345 37.0821 28.9213C37.2154 29.2935 37.1373 29.6933 37.0545 30.0839C36.7513 31.5313 32.4687 33.7094 30.1849 34.7846C27.1844 36.1953 25.1579 37.0132 22.116 38.0747C21.8032 38.1836 21.4899 38.2956 21.1757 38.4078C19.542 38.9913 17.8865 39.5827 16.1792 39.8024C13.0729 40.1976 10.0218 40.0689 7.22801 38.6491C4.43881 37.2338 2.1229 34.826 0.987917 31.9081C-0.246266 28.7281 -0.0498705 25.2036 0.140151 21.7935C0.143979 21.7248 0.147805 21.6562 0.151616 21.5876C0.358077 17.868 0.541166 15.5578 0.77756 12.575C0.872625 11.3754 0.97631 10.0671 1.0936 8.51465L1.09418 8.50699C1.17866 7.38036 1.69239 0.529381 4.31933 2.94544C4.67775 3.27628 4.91669 3.722 5.03616 4.19529C5.56011 6.25613 5.63201 6.73923 5.77807 7.72054C5.84337 8.15926 5.92349 8.69757 6.06546 9.52097C6.35954 11.2165 6.99366 13.3349 8.9144 13.2568C9.29578 13.2384 9.66339 13.1097 10.0034 12.9351C11.7077 12.0552 12.8044 10.4289 13.8695 8.84965C13.9502 8.72994 14.0308 8.6105 14.1114 8.49167C15.8392 5.94601 17.7599 3.52901 19.846 1.26824C20.6732 0.372202 21.9506 -0.588166 22.9983 0.459508C23.3796 0.840898 23.5864 1.40609 23.4486 1.92993C22.5821 5.24555 21.7189 6.9185 20.464 9.35048C20.2215 9.82044 19.9644 10.3187 19.6898 10.8627C19.529 11.1818 19.3463 11.4991 19.1632 11.817C18.6501 12.7078 18.1335 13.6046 18.0861 14.5663C18.0678 14.911 18.4721 15.1086 18.7386 14.8972C20.109 13.8194 20.7693 13.213 21.4744 12.5654C22.2755 11.8297 23.1344 11.0408 25.1579 9.44744C25.6283 9.07713 26.0808 8.7025 26.5285 8.3319C27.8694 7.22178 29.1666 6.14789 30.7685 5.33487C31.5083 4.95807 32.4089 4.72832 33.3142 4.88915C33.5439 4.9305 33.7829 5.00402 33.9437 5.17863C34.2661 5.52339 34.2961 5.77216 34.3187 5.95897L34.3205 5.97358C34.4354 6.92476 34.1321 7.65997 33.645 8.48708C32.2333 10.8987 30.4069 12.694 28.5609 14.5087C27.1322 15.9131 25.6917 17.329 24.4227 19.0511C24.1838 19.3728 23.954 19.8139 24.1746 20.1447C24.3446 20.4021 24.7122 20.5215 25.0109 20.4388C26.6135 19.9958 28.1104 19.1244 29.6224 18.2443C31.5916 17.0982 33.5863 15.9371 35.8736 15.6875C36.4664 15.6186 37.3394 15.8622 37.6611 16.363C37.8035 16.5882 37.8449 16.8593 37.8449 17.1212C37.8311 18.2286 36.834 19.6301 36.0482 20.4067C34.3552 22.0792 32.6522 23.1298 30.9084 24.2055C29.519 25.0626 28.1036 25.9357 26.6467 27.1522C26.2975 27.4463 25.9391 27.8093 25.7185 28.2091C25.429 28.7375 25.8196 29.3946 26.4262 29.3992C28.1761 29.4136 29.4984 29.0853 30.879 28.7425ZM18.352 20.3168C18.9067 20.4609 19.3427 20.8836 19.49 21.4199C19.7587 22.3928 19.7587 24.4216 19.7587 24.4216C19.7587 24.4216 19.7587 26.4504 19.49 27.4233C19.3413 27.961 18.9053 28.3822 18.352 28.5264C17.3485 28.7869 13.3257 28.7869 13.3257 28.7869C13.3257 28.7869 9.30283 28.7869 8.29927 28.5264C7.7446 28.3822 7.30858 27.9596 7.16133 27.4233C6.89257 26.4504 6.89257 24.4216 6.89257 24.4216C6.89257 24.4216 6.89257 22.3928 7.16133 21.4199C7.31001 20.8822 7.74603 20.4609 8.29927 20.3168C9.30283 20.0563 13.3257 20.0563 13.3257 20.0563C13.3257 20.0563 17.3485 20.0563 18.352 20.3168Z" fill="#12D452"/>
<path d="M12.0391 22.5508V26.2924L15.3814 24.4216L12.0391 22.5508Z" fill="#12D452"/>
</g>
<defs>
<clipPath id="clip0_23_2">
<rect width="37.8449" height="40" fill="white"/>
</clipPath>
</defs>
</svg>
