<svg width="203" height="40" viewBox="0 0 203 40" fill="none" xmlns="http://www.w3.org/2000/svg">
<g clip-path="url(#clip0_23_58)">
<path fill-rule="evenodd" clip-rule="evenodd" d="M30.879 28.7425C32.1448 28.4282 33.4597 28.1018 35.1981 28.0161C35.9333 27.9793 36.7696 28.0345 37.0821 28.9213C37.2154 29.2935 37.1373 29.6933 37.0545 30.0839C36.7513 31.5313 32.4687 33.7094 30.1849 34.7846C27.1844 36.1953 25.1579 37.0132 22.116 38.0747C21.8032 38.1836 21.4899 38.2956 21.1757 38.4078C19.542 38.9913 17.8865 39.5827 16.1792 39.8024C13.0729 40.1976 10.0218 40.0689 7.22801 38.6491C4.43881 37.2338 2.1229 34.826 0.987917 31.9081C-0.246266 28.7281 -0.0498705 25.2036 0.140151 21.7935C0.143979 21.7248 0.147805 21.6562 0.151616 21.5876C0.358077 17.868 0.541166 15.5578 0.77756 12.575C0.872625 11.3754 0.97631 10.0671 1.0936 8.51465L1.09418 8.50699C1.17866 7.38036 1.69239 0.529381 4.31933 2.94544C4.67775 3.27628 4.91669 3.722 5.03616 4.19529C5.56011 6.25613 5.63201 6.73923 5.77807 7.72054C5.84337 8.15926 5.92349 8.69757 6.06546 9.52097C6.35954 11.2165 6.99366 13.3349 8.9144 13.2568C9.29578 13.2384 9.66339 13.1097 10.0034 12.9351C11.7077 12.0552 12.8044 10.4289 13.8695 8.84965C13.9502 8.72994 14.0308 8.6105 14.1114 8.49167C15.8392 5.94601 17.7599 3.52901 19.846 1.26824C20.6732 0.372202 21.9506 -0.588166 22.9983 0.459508C23.3796 0.840898 23.5864 1.40609 23.4486 1.92993C22.5821 5.24555 21.7189 6.9185 20.464 9.35048C20.2215 9.82044 19.9644 10.3187 19.6898 10.8627C19.529 11.1818 19.3463 11.4991 19.1632 11.817C18.6501 12.7078 18.1335 13.6046 18.0861 14.5663C18.0678 14.911 18.4721 15.1086 18.7386 14.8972C20.109 13.8194 20.7693 13.213 21.4744 12.5654C22.2755 11.8297 23.1344 11.0408 25.1579 9.44744C25.6283 9.07713 26.0808 8.7025 26.5285 8.3319C27.8694 7.22178 29.1666 6.14789 30.7685 5.33487C31.5083 4.95807 32.4089 4.72832 33.3142 4.88915C33.5439 4.9305 33.7829 5.00402 33.9437 5.17863C34.2661 5.52339 34.2961 5.77216 34.3187 5.95897L34.3205 5.97358C34.4354 6.92476 34.1321 7.65997 33.645 8.48708C32.2333 10.8987 30.4069 12.694 28.5609 14.5087C27.1322 15.9131 25.6917 17.329 24.4227 19.0511C24.1838 19.3728 23.954 19.8139 24.1746 20.1447C24.3446 20.4021 24.7122 20.5215 25.0109 20.4388C26.6135 19.9958 28.1104 19.1244 29.6224 18.2443C31.5916 17.0982 33.5863 15.9371 35.8736 15.6875C36.4664 15.6186 37.3394 15.8622 37.6611 16.363C37.8035 16.5882 37.8449 16.8593 37.8449 17.1212C37.8311 18.2286 36.834 19.6301 36.0482 20.4067C34.3552 22.0792 32.6522 23.1298 30.9084 24.2055C29.519 25.0626 28.1036 25.9357 26.6467 27.1522C26.2975 27.4463 25.9391 27.8093 25.7185 28.2091C25.429 28.7375 25.8196 29.3946 26.4262 29.3992C28.1761 29.4136 29.4984 29.0853 30.879 28.7425ZM18.352 20.3168C18.9067 20.4609 19.3427 20.8836 19.49 21.4199C19.7587 22.3928 19.7587 24.4216 19.7587 24.4216C19.7587 24.4216 19.7587 26.4504 19.49 27.4233C19.3413 27.961 18.9053 28.3822 18.352 28.5264C17.3485 28.7869 13.3257 28.7869 13.3257 28.7869C13.3257 28.7869 9.30283 28.7869 8.29927 28.5264C7.7446 28.3822 7.30858 27.9596 7.16133 27.4233C6.89257 26.4504 6.89257 24.4216 6.89257 24.4216C6.89257 24.4216 6.89257 22.3928 7.16133 21.4199C7.31001 20.8822 7.74603 20.4609 8.29927 20.3168C9.30283 20.0563 13.3257 20.0563 13.3257 20.0563C13.3257 20.0563 17.3485 20.0563 18.352 20.3168Z" fill="#12D452"/>
<path d="M12.0391 22.5508V26.2924L15.3814 24.4216L12.0391 22.5508Z" fill="#12D452"/>
</g>
<path d="M48.153 31.5L55.209 10.64H60.977L68.033 31.5H63.301L61.901 27.244H54.257L52.857 31.5H48.153ZM55.461 23.464H60.697L57.505 13.608H58.681L55.461 23.464ZM76.5419 31.836C75.0486 31.836 73.7139 31.4813 72.5379 30.772C71.3619 30.0627 70.4286 29.1013 69.7379 27.888C69.0659 26.6747 68.7299 25.3307 68.7299 23.856C68.7299 22.3627 69.0752 21.0187 69.7659 19.824C70.4566 18.6107 71.3899 17.6493 72.5659 16.94C73.7419 16.2307 75.0579 15.876 76.5139 15.876C77.6339 15.876 78.6232 16.0907 79.4819 16.52C80.3592 16.9307 81.0499 17.5187 81.5539 18.284L80.9099 19.124V10.304H85.1099V31.5H81.1899V28.7L81.5819 29.568C81.0592 30.3147 80.3499 30.884 79.4539 31.276C78.5579 31.6493 77.5872 31.836 76.5419 31.836ZM77.0459 28.056C77.8112 28.056 78.4832 27.8787 79.0619 27.524C79.6406 27.1693 80.0886 26.6747 80.4059 26.04C80.7419 25.4053 80.9099 24.6773 80.9099 23.856C80.9099 23.0347 80.7419 22.3067 80.4059 21.672C80.0886 21.0373 79.6406 20.5427 79.0619 20.188C78.4832 19.8333 77.8112 19.656 77.0459 19.656C76.2806 19.656 75.5899 19.8427 74.9739 20.216C74.3766 20.5707 73.9099 21.0653 73.5739 21.7C73.2379 22.316 73.0699 23.0347 73.0699 23.856C73.0699 24.6773 73.2379 25.4053 73.5739 26.04C73.9099 26.6747 74.3766 27.1693 74.9739 27.524C75.5899 27.8787 76.2806 28.056 77.0459 28.056ZM98.5178 31.836C97.0244 31.836 95.6338 31.5653 94.3458 31.024C93.0578 30.4827 91.9284 29.7267 90.9578 28.756C89.9871 27.7853 89.2311 26.6467 88.6898 25.34C88.1484 24.0333 87.8778 22.6053 87.8778 21.056C87.8778 19.5067 88.1391 18.0787 88.6618 16.772C89.1844 15.4467 89.9218 14.308 90.8738 13.356C91.8258 12.3853 92.9364 11.6387 94.2058 11.116C95.4938 10.5747 96.8938 10.304 98.4058 10.304C99.9178 10.304 101.271 10.556 102.466 11.06C103.679 11.564 104.706 12.236 105.546 13.076C106.386 13.916 106.983 14.8493 107.338 15.876L103.502 17.724C103.147 16.716 102.522 15.8853 101.626 15.232C100.748 14.56 99.6751 14.224 98.4058 14.224C97.1738 14.224 96.0911 14.5133 95.1578 15.092C94.2244 15.6707 93.4964 16.4733 92.9738 17.5C92.4698 18.508 92.2178 19.6933 92.2178 21.056C92.2178 22.4187 92.4884 23.6133 93.0298 24.64C93.5711 25.6667 94.3084 26.4693 95.2418 27.048C96.1938 27.6267 97.2858 27.916 98.5178 27.916C99.4698 27.916 100.356 27.7387 101.178 27.384C102.018 27.0107 102.69 26.4787 103.194 25.788C103.716 25.0973 103.978 24.2667 103.978 23.296V21.56L105.966 23.24H98.4058V19.6H108.318V21.812C108.318 23.5107 108.038 24.9947 107.478 26.264C106.918 27.5147 106.162 28.56 105.21 29.4C104.276 30.2213 103.222 30.8373 102.046 31.248C100.888 31.64 99.7124 31.836 98.5178 31.836ZM110.69 31.5V16.212H114.61V19.88L114.33 19.348C114.666 18.06 115.216 17.192 115.982 16.744C116.766 16.2773 117.69 16.044 118.754 16.044H119.65V19.684H118.334C117.307 19.684 116.476 20.0013 115.842 20.636C115.207 21.252 114.89 22.1293 114.89 23.268V31.5H110.69ZM126.222 31.836C125.121 31.836 124.169 31.6587 123.366 31.304C122.564 30.9493 121.948 30.4453 121.518 29.792C121.089 29.12 120.874 28.3267 120.874 27.412C120.874 26.5533 121.07 25.7973 121.462 25.144C121.854 24.472 122.452 23.912 123.254 23.464C124.076 23.016 125.093 22.6987 126.306 22.512L130.982 21.756V24.836L127.062 25.536C126.465 25.648 126.008 25.844 125.69 26.124C125.373 26.3853 125.214 26.768 125.214 27.272C125.214 27.7387 125.392 28.1027 125.746 28.364C126.101 28.6253 126.54 28.756 127.062 28.756C127.753 28.756 128.36 28.6067 128.882 28.308C129.405 28.0093 129.806 27.608 130.086 27.104C130.385 26.5813 130.534 26.012 130.534 25.396V21.42C130.534 20.8413 130.301 20.356 129.834 19.964C129.386 19.572 128.77 19.376 127.986 19.376C127.24 19.376 126.577 19.5813 125.998 19.992C125.438 20.4027 125.028 20.944 124.766 21.616L121.406 20.02C121.705 19.1613 122.181 18.424 122.834 17.808C123.488 17.192 124.272 16.716 125.186 16.38C126.101 16.044 127.1 15.876 128.182 15.876C129.47 15.876 130.609 16.1093 131.598 16.576C132.588 17.0427 133.353 17.696 133.894 18.536C134.454 19.3573 134.734 20.3187 134.734 21.42V31.5H130.814V29.036L131.766 28.868C131.318 29.54 130.824 30.1 130.282 30.548C129.741 30.9773 129.134 31.2947 128.462 31.5C127.79 31.724 127.044 31.836 126.222 31.836ZM146.383 31.836C145.337 31.836 144.367 31.6493 143.471 31.276C142.593 30.884 141.884 30.3147 141.343 29.568L141.735 28.7V31.5H137.815V10.304H142.015V19.124L141.371 18.284C141.875 17.5187 142.556 16.9307 143.415 16.52C144.292 16.0907 145.291 15.876 146.411 15.876C147.867 15.876 149.183 16.2307 150.359 16.94C151.535 17.6493 152.468 18.6107 153.159 19.824C153.849 21.0187 154.195 22.3627 154.195 23.856C154.195 25.3307 153.849 26.6747 153.159 27.888C152.487 29.1013 151.563 30.0627 150.387 30.772C149.211 31.4813 147.876 31.836 146.383 31.836ZM145.879 28.056C146.663 28.056 147.353 27.8787 147.951 27.524C148.548 27.1693 149.015 26.6747 149.351 26.04C149.687 25.4053 149.855 24.6773 149.855 23.856C149.855 23.0347 149.687 22.316 149.351 21.7C149.015 21.0653 148.548 20.5707 147.951 20.216C147.353 19.8427 146.663 19.656 145.879 19.656C145.132 19.656 144.46 19.8333 143.863 20.188C143.284 20.5427 142.827 21.0373 142.491 21.672C142.173 22.3067 142.015 23.0347 142.015 23.856C142.015 24.6773 142.173 25.4053 142.491 26.04C142.827 26.6747 143.284 27.1693 143.863 27.524C144.46 27.8787 145.132 28.056 145.879 28.056ZM165.223 31.836C164.177 31.836 163.207 31.6493 162.311 31.276C161.433 30.884 160.724 30.3147 160.183 29.568L160.575 28.7V31.5H156.655V10.304H160.855V19.124L160.211 18.284C160.715 17.5187 161.396 16.9307 162.255 16.52C163.132 16.0907 164.131 15.876 165.251 15.876C166.707 15.876 168.023 16.2307 169.199 16.94C170.375 17.6493 171.308 18.6107 171.999 19.824C172.689 21.0187 173.035 22.3627 173.035 23.856C173.035 25.3307 172.689 26.6747 171.999 27.888C171.327 29.1013 170.403 30.0627 169.227 30.772C168.051 31.4813 166.716 31.836 165.223 31.836ZM164.719 28.056C165.503 28.056 166.193 27.8787 166.791 27.524C167.388 27.1693 167.855 26.6747 168.191 26.04C168.527 25.4053 168.695 24.6773 168.695 23.856C168.695 23.0347 168.527 22.316 168.191 21.7C167.855 21.0653 167.388 20.5707 166.791 20.216C166.193 19.8427 165.503 19.656 164.719 19.656C163.972 19.656 163.3 19.8333 162.703 20.188C162.124 20.5427 161.667 21.0373 161.331 21.672C161.013 22.3067 160.855 23.0347 160.855 23.856C160.855 24.6773 161.013 25.4053 161.331 26.04C161.667 26.6747 162.124 27.1693 162.703 27.524C163.3 27.8787 163.972 28.056 164.719 28.056ZM182.858 31.836C181.234 31.836 179.825 31.4813 178.63 30.772C177.436 30.044 176.512 29.0733 175.858 27.86C175.205 26.6467 174.878 25.3027 174.878 23.828C174.878 22.2973 175.214 20.9347 175.886 19.74C176.577 18.5453 177.501 17.6027 178.658 16.912C179.816 16.2213 181.122 15.876 182.578 15.876C183.792 15.876 184.865 16.072 185.798 16.464C186.732 16.8373 187.516 17.3693 188.15 18.06C188.804 18.7507 189.298 19.5533 189.634 20.468C189.97 21.364 190.138 22.344 190.138 23.408C190.138 23.7067 190.12 24.0053 190.082 24.304C190.064 24.584 190.017 24.8267 189.942 25.032H178.49V21.952H187.562L185.574 23.408C185.761 22.6053 185.752 21.896 185.546 21.28C185.341 20.6453 184.977 20.1507 184.454 19.796C183.95 19.4227 183.325 19.236 182.578 19.236C181.85 19.236 181.225 19.4133 180.702 19.768C180.18 20.1227 179.788 20.6453 179.526 21.336C179.265 22.0267 179.162 22.8667 179.218 23.856C179.144 24.7147 179.246 25.4707 179.526 26.124C179.806 26.7773 180.236 27.2907 180.814 27.664C181.393 28.0187 182.093 28.196 182.914 28.196C183.661 28.196 184.296 28.0467 184.818 27.748C185.36 27.4493 185.78 27.0387 186.078 26.516L189.438 28.112C189.14 28.8587 188.664 29.512 188.01 30.072C187.376 30.632 186.62 31.0707 185.742 31.388C184.865 31.6867 183.904 31.836 182.858 31.836ZM192.612 31.5V16.212H196.532V19.88L196.252 19.348C196.588 18.06 197.138 17.192 197.904 16.744C198.688 16.2773 199.612 16.044 200.676 16.044H201.572V19.684H200.256C199.229 19.684 198.398 20.0013 197.764 20.636C197.129 21.252 196.812 22.1293 196.812 23.268V31.5H192.612Z" fill="#092010"/>
<defs>
<clipPath id="clip0_23_58">
<rect width="37.8449" height="40" fill="white"/>
</clipPath>
</defs>
</svg>
